<svg width="99" height="34" viewBox="0 0 99 34" fill="none" xmlns="http://www.w3.org/2000/svg">
<g id="Group 53">
<path id="Vector" d="M7.4699 27.1395C7.25529 28.268 7.13036 28.9725 6.98302 29.6897C6.83567 30.4069 6.6627 31.0796 6.4641 31.953C4.80485 30.7512 4.43328 29.4028 4.51656 27.6591C4.67352 24.5479 4.61266 21.424 4.62867 18.3064C4.62867 18.1119 4.50695 17.9207 4.01046 17.3501L1.80987 20.678C-0.432362 18.8961 -0.496426 16.4671 1.09556 15.1473C3.56201 13.104 4.93938 10.3658 5.90034 7.398C6.12456 6.6967 5.93237 5.86152 5.93237 4.86377C7.42826 4.84464 8.96579 5.27817 9.8787 6.63933C10.3944 7.40757 10.2791 8.5934 10.4937 9.85573C12.0408 10.0438 13.1524 11.4209 13.8731 13.5312C15.4234 12.6992 16.9033 12.0106 18.2518 11.1213C18.6458 10.8599 18.79 10.0279 18.7932 9.45727C18.7932 9.19269 18.2134 8.8516 17.8322 8.6699C16.8424 8.19174 15.8174 7.78053 14.6547 7.27687C15.5003 6.89115 16.3075 6.39068 17.1916 6.14842C18.4728 5.80096 18.9085 5.08691 18.7387 3.83095C18.6009 3.15412 18.5944 2.45732 18.7195 1.77806C18.8105 1.53947 18.9551 1.32471 19.1422 1.15015C19.3292 0.975582 19.5539 0.845816 19.799 0.770737C20.0744 0.713358 20.5773 1.28396 20.824 1.66649C20.997 1.947 20.9201 2.3901 20.9329 2.75987C20.9745 3.91701 21.0418 4.80958 22.6882 4.92433C24.3347 5.03909 24.7799 7.04098 23.5435 8.34794C23.1271 8.78785 22.6562 9.17356 22.1789 9.62303C23.6076 9.62303 24.8824 9.53377 26.1317 9.67403C26.5225 9.71866 26.8428 10.3913 27.1951 10.777C26.823 11.0808 26.4205 11.3457 25.9939 11.5675C24.8504 12.0266 23.678 12.4059 22.5153 12.8171L22.5697 13.206C23.1013 13.3508 23.6165 13.5495 24.1073 13.7989C24.4692 14.0253 24.9593 14.5002 24.9145 14.7967C24.8568 15.1952 24.4084 15.6414 24.0112 15.8678C23.1655 16.3523 22.2462 16.7093 21.3589 17.1174L21.5639 17.6752C21.9906 17.5798 22.4271 17.5349 22.8644 17.5413C23.4676 17.6578 24.0625 17.8133 24.6454 18.0067C24.3059 18.5359 24.056 19.1575 23.6108 19.5751C22.8868 20.1941 22.1274 20.771 21.3365 21.3028L21.6568 21.7905C22.1181 21.6184 22.6178 21.2582 23.0342 21.3124C24.0176 21.4399 25.222 21.5005 25.8786 22.0902C26.7211 22.8425 25.9267 23.547 25.033 23.7255C24.2578 23.8785 23.4314 23.7988 22.6434 23.8689C21.6472 23.955 21.0867 24.2961 21.0418 25.5202C20.9105 28.1341 20.8016 28.1692 23.473 28.5326C26.0035 28.8768 28.5469 29.1095 31.0774 29.4283C31.5999 29.517 32.0863 29.7514 32.4804 30.1041C30.0684 30.9584 27.6756 31.9466 25.1291 31.3792C20.8336 30.4229 16.5766 29.2785 12.1337 28.1692C12.0344 28.3572 11.8326 28.7079 11.6629 29.0745C10.9806 30.5345 10.4841 30.5663 9.43986 29.2753C8.89852 28.6282 8.30593 28.0608 7.4699 27.1395ZM18.6394 25.4851L14.7155 26.0812C14.2927 24.4587 14.786 23.8849 16.1569 23.6267C17.0602 23.4577 17.8642 22.7532 18.7195 22.2846L18.4216 21.6854L15.1832 22.7054C14.613 21.1371 15.3433 20.3656 16.7848 19.7855C17.6208 19.4539 18.3255 18.7016 19.0975 18.1374L18.8316 17.7868L15.3786 18.8164C14.9878 17.3118 15.164 16.5468 16.5029 16.0495C17.5503 15.6574 18.8861 15.1665 18.8989 13.4993C17.0314 14.3887 15.1543 14.9911 13.6649 16.0877C12.8801 16.6679 12.2042 18.3191 12.4733 19.1926C13.1096 21.1594 13.2967 23.2427 13.021 25.2907C12.9794 25.6094 13.1812 26.2278 13.4054 26.3012C15.0743 26.8622 16.7752 27.318 18.6394 27.8568V25.4851ZM11.2721 25.211C11.98 22.0232 11.7365 18.9375 10.8493 15.8391C10.7997 15.6072 10.8028 15.3673 10.8582 15.1368C10.9136 14.9063 11.02 14.691 11.1696 14.5066C12.0184 13.6906 11.5315 13.2921 10.5289 12.5621C9.72815 15.6 8.92735 18.4084 8.25468 21.255C7.72616 23.5725 8.53977 24.6021 11.2593 25.211H11.2721ZM8.45648 11.5899C7.85749 12.4218 7.29693 13.1263 6.81645 13.8786C6.42246 14.4939 5.76581 15.2175 5.85549 15.7913C6.0669 17.2512 6.63387 18.6602 7.17521 20.4868L10.2887 12.6992L8.45648 11.5899ZM10.5129 27.5284L10.6411 27.0471C9.93396 26.4618 9.18453 25.929 8.39882 25.4532C8.23867 25.3672 7.70694 25.9633 7.34498 26.2438C7.95976 26.808 8.61847 27.3228 9.31494 27.7835C9.58721 27.946 10.1093 27.6368 10.5129 27.5348V27.5284Z" fill="#00A650"/>
<path id="Vector_2" d="M51.3952 7.49374C51.943 9.45099 53.016 9.43824 54.4158 8.97284C55.9181 8.47555 58.5223 9.71876 59.054 11.1787C59.2245 11.7788 59.1698 12.4201 58.9003 12.983C57.9073 15.0231 56.847 17.0346 55.6971 18.9918C55.342 19.5949 54.7692 20.0406 54.0955 20.2382C51.9333 20.659 51.5329 21.1945 52.1736 23.92C53.2723 23.0689 54.3325 22.4091 55.1846 21.5452C56.2609 20.455 57.2955 20.1745 58.202 21.0128C59.1629 21.9118 59.0636 22.9255 57.8817 23.9647C57.5919 24.2006 57.316 24.4528 57.0552 24.7202C55.8797 26.0303 56.0623 26.6073 57.7888 27.1078C59.8644 27.7134 60.63 28.8674 60.3161 31.2167L53.6503 29.7631L55.3319 29.03C53.8585 27.4807 53.3748 25.8167 54.7746 23.8212C52.2921 24.6915 51.7956 25.3226 51.8116 27.2895C51.8116 29.0236 51.8949 30.7641 51.8276 32.495C51.8084 32.9763 51.4016 33.8179 51.1293 33.8338C50.4685 33.8581 49.8193 33.6555 49.2907 33.2601C48.2305 32.4057 47.2983 31.3857 46.0331 30.1616C45.3188 31.2263 44.6973 32.1475 44.1112 33.0305C41.933 31.1753 41.8849 29.5591 43.4929 28.1119C43.8133 27.8186 44.1336 27.2926 44.1016 26.9229C44.0663 26.6615 43.3904 26.4862 43.0061 26.2853L41.4942 25.4215C42.0003 24.8668 42.4103 24.0444 43.0381 23.8276C44.2041 23.3973 45.2579 23.9073 45.8281 25.0549C46.1193 25.7213 46.3665 26.406 46.568 27.1046C49.4509 26.2598 50.3221 24.7488 49.4285 21.8863C48.743 22.119 48.0735 22.4537 47.3688 22.5589C46.5462 22.68 45.7107 22.6864 44.8863 22.578C44.566 22.5366 44.0855 22.052 44.0919 21.7747C44.0983 21.4974 44.5436 21.083 44.8863 20.9427C46.0619 20.4518 47.2951 20.098 48.4675 19.5975C48.9576 19.3903 49.3516 18.96 49.7872 18.6125L49.5598 18.2268C48.8102 18.3766 48.0447 18.7081 47.3176 18.6284C46.6769 18.5583 46.0651 18.0355 45.4437 17.7136C45.8281 17.2258 46.1388 16.6393 46.6161 16.2727C47.2855 15.7563 48.1023 15.4407 48.807 14.9657C49.1621 14.6704 49.4842 14.3381 49.768 13.9744L49.4701 13.5727L48.0158 14.2453C47.2919 14.5641 46.5936 15.0964 45.8345 15.2016C42.894 15.6288 41.744 17.8251 40.7446 20.149C39.0822 24.0571 37.4806 27.9908 35.8245 31.8861C35.5968 32.3509 35.3422 32.8022 35.0622 33.2377L34.5432 33.1963C34.5432 32.291 34.2742 31.2837 34.5881 30.5027C36.6125 25.431 38.7522 20.4136 40.8727 15.3801C41.4013 14.1051 41.9554 12.865 42.5608 11.4656C41.728 11.4656 41.0681 11.4656 40.4051 11.4656C39.1046 11.4465 38.3006 10.7452 37.9963 9.553C37.7048 8.39905 38.0667 7.50967 39.2327 6.94545C41.2411 5.97001 43.2175 4.92125 45.197 3.88843C47.5706 2.64522 47.5674 2.63884 46.6737 0.381938C48.7654 -0.545688 51.2094 0.263993 51.9718 2.29457C52.2921 3.15525 52.6348 3.6366 53.599 3.66847C54.0818 3.69004 54.5438 3.87056 54.9123 4.1817C55.296 4.51646 55.5443 4.97876 55.6106 5.48229C55.6106 5.74687 55.0468 6.13577 54.6497 6.29834C53.599 6.73825 52.5003 7.09527 51.3952 7.49374ZM50.4343 4.72999C46.4687 4.57697 39.9694 5.39941 39.3512 8.45643C43.7012 8.88358 46.8563 6.14852 50.4471 4.72999H50.4343ZM42.2629 15.6925C42.5576 16.1038 42.5832 16.1675 42.6217 16.1835C42.6475 16.1887 42.6743 16.188 42.6998 16.1813C42.7254 16.1747 42.749 16.1623 42.769 16.1452C44.1946 13.9574 46.2338 12.2339 48.6341 11.1883C49.0377 11.0066 49.2267 10.3627 49.5149 9.92915C48.8327 9.71876 48.1568 9.40637 47.4585 9.34261C47.1222 9.31074 46.6353 9.66138 46.3982 9.98016C44.9632 11.9055 43.5666 13.8692 42.2629 15.6925ZM56.0078 12.2307C55.4633 11.6888 54.9956 10.911 54.6689 10.9556C53.8489 11.0895 53.0929 11.5931 52.3113 11.9629C52.5772 12.3964 52.7502 12.9384 53.1217 13.238C54.3742 14.2613 54.3678 15.1219 53.0897 16.1069C52.7271 16.4495 52.4449 16.8675 52.2633 17.331C52.2216 17.4235 52.6413 17.8761 52.6861 17.8506C53.1377 17.6179 53.756 17.4171 53.9482 17.0218C54.6817 15.53 55.2775 13.968 56.0078 12.2307ZM47.0901 29.3583L47.1606 29.9002C47.8909 30.0086 49.1434 30.3911 49.2555 30.1775C49.6655 29.3934 49.6975 28.4147 49.8705 27.5094L49.3452 27.299L47.0901 29.3583Z" fill="#00A650"/>
<path id="Vector_3" d="M75.0476 11.3063C74.045 11.0544 73.1256 10.9684 72.328 10.589C71.3671 10.13 71.2806 9.4255 72.328 8.8294C72.3761 8.8039 72.4209 8.77521 72.469 8.75289C75.9188 6.92314 76.2135 6.06565 74.5318 2.59741C75.3358 1.53271 76.4185 1.88655 77.2257 2.37746C77.9509 2.82424 78.4839 3.52274 78.7216 4.33791C78.9138 5.23365 78.8113 5.93176 79.9356 6.38442C81.3835 6.95821 81.3514 7.88902 79.9709 8.78158C78.8978 9.47651 77.9785 10.1778 78.2956 11.7366L82.575 10.9588C82.5398 10.4743 82.4886 9.83353 82.4277 9.04616C84.8589 9.1928 86.0409 7.51606 87.4087 6.1294C89.0935 4.43991 90.6535 4.42716 92.4152 6.06565C93.3281 6.91996 93.7382 7.65951 92.8188 8.90272C92.1942 9.74746 92.143 10.997 91.7618 12.0394C91.3037 13.2795 90.7656 14.4908 90.2146 15.8328C90.535 15.989 90.9674 16.1516 91.3614 16.3715C91.9254 16.6736 92.3626 17.1662 92.594 17.7606C92.8254 18.355 92.8358 19.0121 92.6234 19.6134C92.3031 20.6208 92.0917 21.66 91.8579 22.6896C91.3582 24.8955 90.8553 24.6915 93.5267 25.9793C94.2443 26.3236 95.013 26.5627 95.7273 26.9165C97.7101 27.8951 98.5365 29.4412 98.2162 31.8447C97.236 31.2964 96.3327 30.8247 95.4615 30.2955C94.0072 29.4061 92.5978 28.4434 91.1147 27.6051C90.9036 27.5052 90.6719 27.456 90.4383 27.4616C90.2046 27.4671 89.9755 27.5272 89.7694 27.6369C88.0909 28.9503 86.342 29.9767 84.0037 29.5496C83.9236 30.4198 83.8531 31.1434 83.7858 31.8511L83.3342 32.0902C82.9466 31.3984 82.2451 30.7163 82.2227 30.0118C82.1298 26.8432 82.1266 23.6618 82.2868 20.4964C82.4149 17.9622 82.8249 15.4439 83.1452 12.5782L80.4353 13.0786C81.6557 15.2367 80.5314 16.6648 79.2597 17.9271C79.359 18.1248 79.3687 18.1917 79.4103 18.214C81.2169 19.3138 81.1849 19.4604 79.3014 20.6112C78.6607 20.9969 78.1739 21.6249 77.6165 22.1413L77.8824 22.4983C78.7024 22.4983 79.5384 22.4027 80.3328 22.543C80.698 22.6067 80.9735 23.1391 81.2938 23.4578C81.0055 23.7224 80.7236 24.2101 80.4257 24.2197C77.7318 24.2994 77.6197 26.1132 77.5781 28.131C77.546 29.6356 77.2738 31.1371 77.0624 33.0529C74.3749 31.0669 75.9509 28.555 75.2365 26.1897C74.1378 26.9484 73.0808 27.6561 72.0526 28.402C70.3965 29.6006 69.5765 29.4476 68.4105 27.5923C69.6918 27.009 71.0884 26.5946 72.2159 25.804C73.3435 25.0134 74.0962 23.8914 75.1565 22.7661C73.4139 23.002 71.5913 24.2133 70.672 21.6472L73.2345 20.0534C72.9142 18.8675 72.5939 17.6849 72.2736 16.4576C70.0314 16.8146 68.1831 19.9418 65.7839 16.9485C68.5259 15.7818 71.1781 14.6055 73.8688 13.5313C74.9579 13.0786 75.3775 12.4411 75.0476 11.3063ZM84.3368 21.9373L89.5644 23.834C89.8847 21.966 90.205 20.3275 90.4581 18.6667C90.4997 18.383 90.2659 17.8634 90.0513 17.7933C89.7886 17.7072 89.3626 17.924 89.0903 18.112C88.0226 18.8792 86.9655 19.6719 85.9192 20.4901C85.4515 20.8758 85.0223 21.3221 84.3528 21.9373H84.3368ZM85.1152 13.1169C84.6571 15.9284 84.2343 18.5137 83.8115 21.0862L84.1895 21.2009C85.7622 19.4636 87.335 17.7295 88.9462 15.9571L85.1152 13.1169ZM90.0128 7.09528L89.1768 6.55018C88.8976 7.09632 88.5673 7.61503 88.1902 8.09941C87.5944 8.73696 86.8481 9.25655 86.2427 9.89729C85.8551 10.3053 85.2593 11.1724 85.349 11.268C85.9269 11.8977 86.6263 12.405 87.4054 12.7599C87.777 12.9161 88.7476 12.6132 88.8277 12.3391C89.3242 10.6145 89.6445 8.84853 90.0128 7.09528ZM84.0934 28.3797C85.7814 28.5614 87.4887 27.7421 88.0557 26.381C88.171 26.1005 88.0557 25.4788 87.8219 25.3418C86.736 24.6692 85.5796 24.1049 84.0934 23.3144V28.3797ZM75.1789 19.2915C76.7452 17.7965 77.7959 16.295 78.0618 14.2135C76.8785 14.4341 75.728 14.8025 74.6375 15.31C74.471 15.3833 74.3172 15.9157 74.3429 15.9476C75.6241 16.7222 74.6375 18.0355 75.1789 19.2915Z" fill="#00A650"/>
</g>
</svg>
