<svg width="167" height="34" viewBox="0 0 167 34" fill="none" xmlns="http://www.w3.org/2000/svg">
<g id="Layer_1" clip-path="url(#clip0_109_321)">
<path id="Vector" d="M158.788 10.0503V5.79173H157.255V4.91162H161.357V5.78463H159.831V10.0432L158.788 10.0503Z" fill="#7F4B1F"/>
<path id="Vector_2" d="M162.017 10.0503V4.91162H163.572L164.509 8.46043L165.431 4.91162H167V10.0645H166.028V6.00465L165.006 10.0645H164.005L162.983 6.00465V10.0645L162.017 10.0503Z" fill="#7F4B1F"/>
<path id="Vector_3" d="M41.6205 27.3544C41.998 26.0376 42.1727 24.671 42.1386 23.3016V10.3981C42.158 9.03454 42.0868 7.67116 41.9257 6.31699C42.3515 5.82726 44.1472 5.77048 44.4808 6.07568C48.0296 11.0937 54.311 19.1353 56.0783 22.6983L55.1982 8.6947C55.0705 7.16871 55.6241 6.10407 56.781 5.91953C57.3097 5.88218 57.8378 6.00063 58.2999 6.26021C58.0538 7.35661 57.9511 8.48035 57.9947 9.6032V23.3939C57.9638 24.7167 58.0255 26.0401 58.1792 27.3544C57.8233 27.5877 57.4173 27.7338 56.9943 27.7806C56.5713 27.8275 56.1431 27.7739 55.7448 27.6241C49.5343 20.3206 46.0281 14.8483 44.204 11.5196L44.9138 25.7148C44.9453 25.9743 44.923 26.2374 44.8483 26.4879C44.7736 26.7383 44.6481 26.9707 44.4796 27.1705C44.3111 27.3703 44.1032 27.5332 43.869 27.6491C43.6347 27.765 43.3791 27.8314 43.1181 27.8441C42.5819 27.8298 42.0615 27.6596 41.6205 27.3544Z" fill="#7F4B1F"/>
<path id="Vector_4" d="M77.499 25.7359C77.499 26.8361 76.4627 27.7162 74.88 27.7162C72.992 27.7162 71.899 26.5947 71.7783 23.4576C70.6498 25.9559 68.5205 27.7162 65.7169 27.7162C63.4031 27.7162 61.7919 26.4386 61.7919 24.1673C61.7919 21.3993 64.3471 19.8449 67.0229 19.0854C68.5047 18.6927 70.0324 18.4994 71.5654 18.5105V17.744C71.5654 14.3655 70.7988 12.6337 68.5489 12.6337C67.2713 12.6337 66.1144 13.2441 66.1144 14.9759C66.0797 15.4174 66.1698 15.8598 66.3744 16.2526C66.5789 16.6453 66.8897 16.9728 67.2713 17.1975C66.7332 17.6676 66.033 17.9094 65.3195 17.8718C64.9466 17.8927 64.5734 17.8357 64.2238 17.7045C63.8741 17.5732 63.5556 17.3707 63.2886 17.1096C63.0215 16.8485 62.8117 16.5347 62.6726 16.1882C62.5334 15.8416 62.468 15.4698 62.4804 15.0966C62.4804 12.6621 64.9504 11.3845 68.7831 11.3845C73.1978 11.3845 75.2064 13.3009 75.2064 17.9569V23.4363C75.2064 24.5364 75.54 25.0545 76.2427 25.0545C76.4154 25.0527 76.5852 25.0099 76.7382 24.9297C76.8912 24.8495 77.023 24.7342 77.1228 24.5932C77.3637 24.9259 77.4951 25.3252 77.499 25.7359ZM71.6505 19.71C70.3324 19.6402 69.0148 19.8581 67.7894 20.3488C67.1825 20.5756 66.6564 20.977 66.2774 21.5025C65.8985 22.028 65.6837 22.654 65.6601 23.3014C65.6601 24.43 66.1783 25.4946 67.5126 25.3739C69.3864 25.2533 71.6647 22.7833 71.6647 19.71H71.6505Z" fill="#7F4B1F"/>
<path id="Vector_5" d="M87.5918 11.6755V12.5556C87.5938 12.6751 87.5714 12.7937 87.5257 12.9042C87.4801 13.0147 87.4122 13.1146 87.3264 13.1978C87.2406 13.2809 87.1386 13.3456 87.0267 13.3878C86.9149 13.4299 86.7955 13.4486 86.6762 13.4428H83.8726V23.422C83.8726 24.4938 84.334 25.0687 85.2921 25.0687C85.7464 25.0687 86.3852 24.9196 86.5697 24.579C86.8121 24.9309 86.9499 25.3443 86.9672 25.7714C86.9672 26.9283 85.7464 27.7161 83.8868 27.7161C81.6085 27.7161 80.338 26.1972 80.338 23.7272V13.4286H79.8766C79.2669 13.437 78.6581 13.4772 78.0526 13.5492V12.662C78.053 12.5386 78.0792 12.4166 78.1294 12.3039C78.1797 12.1911 78.2529 12.0901 78.3444 12.0073C78.4359 11.9244 78.5437 11.8616 78.6609 11.8228C78.7781 11.784 78.9021 11.7701 79.0249 11.7819H80.3096V9.56038C80.3091 9.29818 80.3638 9.03882 80.4703 8.7992C80.5767 8.55957 80.7324 8.34505 80.9273 8.16961C81.1221 7.99417 81.3517 7.86176 81.6012 7.78098C81.8506 7.7002 82.1143 7.67288 82.375 7.70079C83.1211 7.70183 83.8389 7.98594 84.3836 8.49574C84.1035 9.57028 83.9417 10.6722 83.901 11.7819H84.2914C84.5966 11.7961 87.2866 11.7322 87.5918 11.6755Z" fill="#7F4B1F"/>
<path id="Vector_6" d="M98.2169 11.6755V12.5556C98.219 12.6751 98.1965 12.7937 98.1509 12.9042C98.1053 13.0147 98.0374 13.1146 97.9516 13.1978C97.8657 13.2809 97.7637 13.3456 97.6519 13.3878C97.54 13.4299 97.4207 13.4486 97.3013 13.4428H94.4978V23.422C94.4978 24.4938 94.9591 25.0687 95.9173 25.0687C96.3716 25.0687 97.0103 24.9196 97.1949 24.579C97.4373 24.9309 97.575 25.3443 97.5923 25.7714C97.5923 26.9283 96.3716 27.7161 94.512 27.7161C92.2336 27.7161 90.9632 26.1972 90.9632 23.7272V13.4286H90.5018C89.8921 13.437 89.2832 13.4772 88.6777 13.5492V12.662C88.6782 12.5386 88.7043 12.4166 88.7546 12.3039C88.8048 12.1911 88.878 12.0901 88.9696 12.0073C89.0611 11.9244 89.1689 11.8616 89.2861 11.8228C89.4032 11.784 89.5272 11.7701 89.6501 11.7819H90.9348V9.56038C90.9343 9.29818 90.989 9.03882 91.0954 8.7992C91.2019 8.55957 91.3576 8.34505 91.5524 8.16961C91.7473 7.99417 91.9769 7.86176 92.2264 7.78098C92.4758 7.7002 92.7395 7.67288 93.0002 7.70079C93.7462 7.70183 94.4641 7.98594 95.0088 8.49574C94.7287 9.57028 94.5668 10.6722 94.5262 11.7819H94.9166C95.2005 11.7961 97.9117 11.7322 98.2169 11.6755Z" fill="#7F4B1F"/>
<path id="Vector_7" d="M99.4377 19.6179C99.4377 14.4154 102.114 11.3705 106.741 11.3705C111.369 11.3705 114.08 14.4154 114.08 19.6179C114.08 24.8205 111.369 27.837 106.741 27.837C102.114 27.837 99.4377 24.785 99.4377 19.6179ZM110.943 7.47388C111.127 8.00727 111.127 8.58713 110.943 9.12052H102.568C102.419 8.58176 102.419 8.01264 102.568 7.47388H110.943ZM110.233 19.6179C110.233 15.0258 109.076 12.648 106.734 12.648C104.392 12.648 103.235 15.0258 103.235 19.6179C103.235 24.2101 104.392 26.531 106.734 26.531C109.076 26.531 110.24 24.1533 110.24 19.6179H110.233Z" fill="#7F4B1F"/>
<path id="Vector_8" d="M140.256 27.0206C139.988 27.285 139.669 27.4934 139.32 27.6335C138.97 27.7736 138.596 27.8428 138.219 27.8368C137.958 27.8608 137.695 27.8295 137.447 27.7452C137.199 27.6608 136.972 27.5251 136.78 27.3471C136.588 27.169 136.435 26.9525 136.332 26.7116C136.229 26.4707 136.178 26.2108 136.182 25.9489V18.0705C136.182 15.2315 135.905 13.1022 133.989 13.1022C132.314 13.1022 130.61 15.267 130.547 20.0153V23.3299C130.519 24.592 130.706 25.8496 131.1 27.049C130.834 27.3109 130.519 27.5177 130.174 27.6578C129.828 27.7978 129.458 27.8683 129.084 27.8652C128.828 27.8831 128.571 27.8472 128.329 27.7598C128.087 27.6724 127.866 27.5354 127.68 27.3577C127.495 27.1799 127.348 26.9653 127.25 26.7276C127.152 26.4899 127.105 26.2343 127.111 25.9773V18.0989C127.111 14.8979 126.65 13.1306 124.762 13.1306C123.03 13.1306 121.511 15.3237 121.511 20.3489C121.511 24.5506 121.511 25.6437 122.086 27.1058C121.819 27.3558 121.504 27.5494 121.16 27.675C120.816 27.8006 120.45 27.8557 120.085 27.8368C119.811 27.8492 119.538 27.804 119.283 27.7043C119.028 27.6046 118.797 27.4525 118.604 27.2579C118.412 27.0633 118.262 26.8304 118.165 26.5744C118.068 26.3184 118.025 26.0448 118.041 25.7714V15.6644C118.041 14.5643 117.707 14.0462 117.125 14.0462C116.949 14.0455 116.775 14.0903 116.621 14.176C116.467 14.2618 116.337 14.3857 116.245 14.5359C116.017 14.1926 115.891 13.7912 115.883 13.379C115.883 12.1937 116.791 11.3704 118.19 11.3704C119.957 11.3704 121.085 12.5912 121.142 15.1179C121.909 12.8041 123.492 11.3704 125.983 11.3704C128.474 11.3704 129.823 12.6479 130.341 15.054C131.1 12.8041 132.747 11.3704 135.181 11.3704C138.311 11.3704 139.809 13.4996 139.809 17.5524V23.3015C139.762 24.557 139.913 25.812 140.256 27.0206Z" fill="#7F4B1F"/>
<path id="Vector_9" d="M156.091 24.8275C155.331 26.7722 153.202 27.8368 150.413 27.8368C145.814 27.8368 142.889 24.8842 142.889 19.5894C142.889 14.5075 145.537 11.3704 150.47 11.3704C153.876 11.3704 156.496 12.8963 156.496 15.9057C156.496 18.9151 153.869 20.5263 149.852 20.5263C148.826 20.5353 147.8 20.4856 146.779 20.3772C147.056 24.2384 148.816 25.5514 151.407 25.5514C153.628 25.5514 155.182 24.5719 155.85 23.1453C156.283 23.3653 156.552 23.7628 156.091 24.8275ZM146.715 19.1068C147.084 19.1423 147.51 19.1706 147.936 19.1706C150.065 19.1706 152.684 18.7448 152.684 15.3379C152.684 13.2086 151.527 12.655 150.37 12.655C148.085 12.6479 146.715 15.0256 146.715 19.1068Z" fill="#7F4B1F"/>
<path id="Vector_10" d="M5.9052 25.1045C6.23169 21.8325 8.16934 19.5541 11.4697 18.3191C14.614 17.1338 16.8994 13.8335 16.6013 10.7602C16.2181 6.77132 19.0997 3.12314 23.3583 2.24303H23.4221C21.0746 0.796965 18.3719 0.0303881 15.6147 0.0285645C6.97694 0.0285645 -2.59422e-05 7.44558 -2.59422e-05 16.5873C-0.0224344 19.4198 0.675064 22.2116 2.02703 24.7008C3.37899 27.1899 5.34111 29.2948 7.7293 30.8181C7.02663 30.0566 6.4992 29.1505 6.18408 28.1634C5.86895 27.1763 5.77377 26.1323 5.9052 25.1045Z" fill="#7F4B1F"/>
<path id="Vector_11" d="M23.4221 2.21436H23.3583C19.0997 3.11575 16.2181 6.76393 16.6013 10.7315C16.8994 13.8048 14.614 17.1194 11.4698 18.2905C8.16936 19.5255 6.23171 21.8393 5.90522 25.0758C5.77911 26.0979 5.87695 27.1352 6.19194 28.1157C6.50692 29.0963 7.03153 29.9965 7.72931 30.7539C10.0974 32.2452 12.8375 33.0397 15.6361 33.0464C17.391 33.0421 19.1311 32.7248 20.7747 32.1096C22.5126 31.3204 24.1555 30.3371 25.6721 29.1782C27.449 27.58 28.8668 25.6232 29.8321 23.437C30.7974 21.2507 31.2882 18.8846 31.2721 16.4948C31.2888 13.6428 30.5764 10.8339 29.2026 8.33463C27.8287 5.83534 25.839 3.7286 23.4221 2.21436Z" fill="url(#paint0_linear_109_321)"/>
<path id="Vector_12" d="M13.2583 23.0885C13.0394 23.0885 12.8259 23.0201 12.6478 22.8928C12.4696 22.7656 12.3357 22.5858 12.2647 22.3787C12.219 22.2483 12.1996 22.1101 12.2077 21.9721C12.2159 21.8341 12.2514 21.6991 12.3121 21.575C12.3729 21.4509 12.4577 21.34 12.5617 21.2489C12.6656 21.1578 12.7866 21.0883 12.9177 21.0444C19.7172 18.688 19.2487 12.7259 19.2274 12.4704C19.2036 12.1924 19.29 11.9161 19.4678 11.701C19.6457 11.486 19.9009 11.3494 20.1785 11.3206C20.316 11.3069 20.4549 11.3205 20.5872 11.3605C20.7194 11.4006 20.8425 11.4663 20.9493 11.554C21.0562 11.6417 21.1446 11.7496 21.2096 11.8715C21.2747 11.9935 21.315 12.127 21.3283 12.2646C21.3283 12.3427 22.0381 20.1217 13.6061 23.0317C13.4945 23.0712 13.3767 23.0904 13.2583 23.0885Z" fill="white"/>
</g>
<defs>
<linearGradient id="paint0_linear_109_321" x1="5.85553" y1="17.6588" x2="31.2721" y2="17.6588" gradientUnits="userSpaceOnUse">
<stop stop-color="#F1E331"/>
<stop offset="1" stop-color="#DBB379"/>
</linearGradient>
<clipPath id="clip0_109_321">
<rect width="167" height="33.1033" fill="white"/>
</clipPath>
</defs>
</svg>
